# xmcd
#
# Track frame offsets:
#	150
#	21764
#	43213
#	61664
#	84705
#	107559
#	127808
#	143793
#	160382
#	174751
#	219027
#	234684
#	251352
#	265919
#	281553
#	297087
#	311432
#	326702
#	343938
#
# Disc length: 4757 seconds
#
# Revision: 1
# Processed by: cddbd v1.5.2PL0 Copyright (c) Steve Scherf et al.
# Submitted via: audiograbber 1.83.01
#
DISCID=0c129313
DTITLE=Various Artist - St. Louis Classics Volume 4
DYEAR=2002
DGENRE=Rock
TTITLE0=String Driven Thing - Circus
TTITLE1=707 - I Could Be Good For You
TTITLE2=Lake - On The Run
TTITLE3=Orion The Hunter - So You Ran
TTITLE4=Frank Marino and Mahogany Rush - Strange Dreams
TTITLE5=Taxxi - I'm Leaving
TTITLE6=Moving Pictures - What About Me
TTITLE7=April Wine - Shot Down
TTITLE8=Pavlov's Dog - Julia
TTITLE9=Dust - From A Dry Camel
TTITLE10=Jay Ferguson - Thunder Island
TTITLE11=Blues Image - Ride Captain Ride
TTITLE12=Lee Michaels - Do You Know What I Mean
TTITLE13=Survivor - Summer Nights
TTITLE14=Ozark Mountain Daredevils - Take You Tonight
TTITLE15=Kansas - Two Cents Worth
TTITLE16=Ambrosia - Hold On To Yesterday
TTITLE17=Jefferson Starship - Ride The Tiger
TTITLE18=Dr. Hook And The Medicine Show - Cover Of The Rolling Stone
EXTD=
EXTT0=
EXTT1=
EXTT2=
EXTT3=
EXTT4=
EXTT5=
EXTT6=
EXTT7=
EXTT8=
EXTT9=
EXTT10=
EXTT11=
EXTT12=
EXTT13=
EXTT14=
EXTT15=
EXTT16=
EXTT17=
EXTT18=
PLAYORDER=
